# Blender 4.2.3 LTS
# www.blender.org
mtllib Road_Tjunction.mtl
o Cube
v 30.000000 0.999998 -30.000000
v 30.000000 -1.000002 -30.000000
v 30.000000 1.000002 30.000000
v 30.000000 -0.999998 30.000000
v -30.000000 0.999998 -30.000000
v -30.000000 -1.000002 -30.000000
v -30.000000 1.000002 30.000000
v -30.000000 -0.999998 30.000000
v 0.000000 -1.000002 -30.000000
v 0.000000 1.000002 30.000000
v 0.000000 -0.999998 30.000000
v 0.000000 0.999998 -30.000000
v -30.000000 -1.000000 0.000000
v 30.000000 1.000000 -0.000000
v -30.000000 1.000000 -0.000000
v 30.000000 -1.000000 0.000000
v 0.000000 -1.000000 0.000000
v 0.000000 1.000000 -0.000000
v -30.000000 0.999999 -15.000000
v 30.000000 -1.000001 -15.000000
v -30.000000 -1.000001 -15.000000
v 30.000000 0.999999 -15.000000
v 0.000000 -1.000001 -15.000000
v 0.000000 0.999999 -15.000000
v -30.000000 -0.999999 15.000000
v 30.000000 1.000001 15.000000
v 0.000000 -0.999999 15.000000
v 0.000000 1.000001 15.000000
v -30.000000 1.000001 15.000000
v 30.000000 -0.999999 15.000000
v 15.000000 -0.999998 30.000000
v 15.000000 0.999998 -30.000000
v 15.000000 -1.000002 -30.000000
v 15.000000 1.000002 30.000000
v 15.000000 1.000000 -0.000000
v 15.000000 -1.000000 0.000000
v 15.000000 -1.000001 -15.000000
v 15.000000 0.999999 -15.000000
v 15.000000 1.000001 15.000000
v 15.000000 -0.999999 15.000000
v -15.000000 -1.000002 -30.000000
v -15.000000 1.000002 30.000000
v -15.000000 -0.999998 30.000000
v -15.000000 0.999998 -30.000000
v -15.000000 -1.000000 0.000000
v -15.000000 1.000000 -0.000000
v -15.000000 0.999999 -15.000000
v -15.000000 -1.000001 -15.000000
v -15.000000 -0.999999 15.000000
v -15.000000 1.000001 15.000000
v -30.000000 -0.999998 22.500000
v 30.000000 1.000002 22.500000
v 0.000000 -0.999998 22.500000
v 0.000000 1.000002 22.500000
v -30.000000 1.000002 22.500000
v 30.000000 -0.999998 22.500000
v 15.000000 1.000002 22.500000
v 15.000000 -0.999998 22.500000
v -15.000000 -0.999998 22.500000
v -15.000000 1.000002 22.500000
v -30.000000 1.000001 7.500000
v 30.000000 -0.999999 7.500000
v -30.000000 -0.999999 7.500000
v 30.000000 1.000001 7.500000
v 0.000000 -0.999999 7.500000
v 0.000000 1.000001 7.500000
v 15.000000 -0.999999 7.500000
v 15.000000 1.000001 7.500000
v -15.000000 1.000001 7.500000
v -15.000000 -0.999999 7.500000
v -30.000000 -1.000001 -7.500000
v 30.000000 0.999999 -7.500000
v 0.000000 -1.000001 -7.500000
v 0.000000 0.999999 -7.500000
v -30.000000 0.999999 -7.500000
v 30.000000 -1.000001 -7.500000
v 15.000000 -1.000001 -7.500000
v 15.000000 0.999999 -7.500000
v -15.000000 0.999999 -7.500000
v -15.000000 -1.000001 -7.500000
v -30.000000 0.999998 -22.500000
v 30.000000 -1.000002 -22.500000
v -30.000000 -1.000002 -22.500000
v 30.000000 0.999998 -22.500000
v 0.000000 -1.000002 -22.500000
v 0.000000 0.999998 -22.500000
v 15.000000 0.999998 -22.500000
v 15.000000 -1.000002 -22.500000
v -15.000000 -1.000002 -22.500000
v -15.000000 0.999998 -22.500000
v 7.500000 -1.000002 -30.000000
v 7.500000 1.000002 30.000000
v 7.500000 -1.000000 0.000000
v 7.500000 -1.000001 -15.000000
v 7.500000 -0.999999 15.000000
v 7.500000 -0.999998 30.000000
v 7.500000 0.999998 -30.000000
v 7.500000 1.000000 -0.000000
v 7.500000 0.999999 -15.000000
v 7.500000 1.000001 15.000000
v 7.500000 -0.999998 22.500000
v 7.500000 1.000002 22.500000
v 7.500000 -0.999999 7.500000
v 7.500000 1.000001 7.500000
v 7.500000 -1.000001 -7.500000
v 7.500000 0.999999 -7.500000
v 7.500000 -1.000002 -22.500000
v 7.500000 0.999998 -22.500000
v 22.500000 -0.999998 30.000000
v 22.500000 0.999998 -30.000000
v 22.500000 1.000000 -0.000000
v 22.500000 0.999999 -15.000000
v 22.500000 1.000001 15.000000
v 22.500000 -1.000002 -30.000000
v 22.500000 1.000002 30.000000
v 22.500000 -1.000000 0.000000
v 22.500000 -1.000001 -15.000000
v 22.500000 -0.999999 15.000000
v 22.500000 1.000002 22.500000
v 22.500000 -0.999998 22.500000
v 22.500000 1.000001 7.500000
v 22.500000 -0.999999 7.500000
v 22.500000 0.999999 -7.500000
v 22.500000 -1.000001 -7.500000
v 22.500000 0.999998 -22.500000
v 22.500000 -1.000002 -22.500000
v -7.500000 -0.999998 30.000000
v -7.500000 0.999998 -30.000000
v -7.500000 1.000000 -0.000000
v -7.500000 0.999999 -15.000000
v -7.500000 1.000001 15.000000
v -7.500000 -1.000002 -30.000000
v -7.500000 1.000002 30.000000
v -7.500000 -1.000000 0.000000
v -7.500000 -1.000001 -15.000000
v -7.500000 -0.999999 15.000000
v -7.500000 1.000002 22.500000
v -7.500000 -0.999998 22.500000
v -7.500000 1.000001 7.500000
v -7.500000 -0.999999 7.500000
v -7.500000 0.999999 -7.500000
v -7.500000 -1.000001 -7.500000
v -7.500000 0.999998 -22.500000
v -7.500000 -1.000002 -22.500000
v -22.500000 -1.000002 -30.000000
v -22.500000 1.000002 30.000000
v -22.500000 -1.000000 0.000000
v -22.500000 -1.000001 -15.000000
v -22.500000 -0.999999 15.000000
v -22.500000 -0.999998 30.000000
v -22.500000 0.999998 -30.000000
v -22.500000 1.000000 -0.000000
v -22.500000 0.999999 -15.000000
v -22.500000 1.000001 15.000000
v -22.500000 -0.999998 22.500000
v -22.500000 1.000002 22.500000
v -22.500000 -0.999999 7.500000
v -22.500000 1.000001 7.500000
v -22.500000 -1.000001 -7.500000
v -22.500000 0.999999 -7.500000
v -22.500000 -1.000002 -22.500000
v -22.500000 0.999998 -22.500000
v -22.500000 2.284256 30.000000
v -30.000000 2.284256 30.000000
v 30.000000 2.284256 22.500000
v 30.000000 2.284256 30.000000
v -30.000000 2.284252 -22.500000
v -30.000000 2.284252 -30.000000
v 22.500000 2.284252 -30.000000
v 30.000000 2.284252 -30.000000
v -30.000000 2.284255 7.500000
v -30.000000 2.284254 -0.000000
v -30.000000 2.284254 -7.500000
v -30.000000 2.284253 -15.000000
v 30.000000 2.284252 -22.500000
v -30.000000 2.284256 22.500000
v -30.000000 2.284255 15.000000
v 22.500000 2.284256 22.500000
v 22.500000 2.284252 -22.500000
v 22.500000 2.284256 30.000000
v -22.500000 2.284252 -30.000000
v -22.500000 2.284254 -0.000000
v -22.500000 2.284253 -15.000000
v -22.500000 2.284255 15.000000
v -22.500000 2.284256 22.500000
v -22.500000 2.284255 7.500000
v -22.500000 2.284254 -7.500000
v -22.500000 2.284252 -22.500000
v 30.000000 -0.281737 -15.000000
v 30.000000 -0.281738 -22.500000
v 30.000000 1.002517 -15.000000
v 22.500000 -0.281735 15.000000
v 22.500000 -0.281735 7.500000
v 22.500000 -0.281737 -15.000000
v 22.500000 -0.281738 -22.500000
v 22.500000 -0.281736 0.000000
v 22.500000 -0.281736 -7.500000
v 22.500000 -0.281734 22.500000
v 30.000000 -0.281736 0.000000
v 30.000000 -0.281736 -7.500000
v 30.000000 1.002518 -0.000000
v 22.500000 1.002518 -0.000000
v 22.500000 1.002517 -15.000000
v 30.000000 -0.281735 15.000000
v 30.000000 -0.281735 7.500000
v 30.000000 1.002519 15.000000
v 30.000000 1.002518 -7.500000
v 30.000000 1.002519 7.500000
v 22.500000 1.002519 15.000000
v 30.000000 1.002520 22.500000
v 22.500000 1.002520 22.500000
v 22.500000 1.002518 -7.500000
v 30.000000 1.002517 -22.500000
v 22.500000 1.002517 -22.500000
v 22.500000 1.002519 7.500000
v 30.000000 -0.281734 22.500000
vn -1.0000 -0.0000 -0.0000
vn -0.0000 -0.0000 1.0000
vn -0.0000 -1.0000 -0.0000
vn 1.0000 -0.0000 -0.0000
vn -0.0000 -0.0000 -1.0000
vn -0.0000 1.0000 -0.0000
vt 0.625000 0.187500
vt 0.625000 0.218750
vt 0.625000 0.968750
vt 0.375000 1.000000
vt 0.375000 0.968750
vt 0.375000 0.250000
vt 0.375000 0.218750
vt 0.375000 0.718750
vt 0.343750 0.750000
vt 0.343750 0.718750
vt 0.625000 0.718750
vt 0.375000 0.750000
vt 0.625000 0.468750
vt 0.375000 0.500000
vt 0.375000 0.468750
vt 0.625000 0.343750
vt 0.375000 0.375000
vt 0.375000 0.343750
vt 0.250000 0.718750
vt 0.218750 0.750000
vt 0.218750 0.718750
vt 0.625000 0.843750
vt 0.375000 0.875000
vt 0.375000 0.843750
vt 0.497863 0.864706
vt 0.375346 0.987223
vt 0.375346 0.864706
vt 0.497863 0.374639
vt 0.375346 0.497156
vt 0.375346 0.374639
vt 0.250000 0.593750
vt 0.218750 0.625000
vt 0.218750 0.593750
vt 0.625000 0.593750
vt 0.375000 0.625000
vt 0.375000 0.593750
vt 0.343750 0.625000
vt 0.343750 0.593750
vt 0.625000 0.093750
vt 0.375000 0.125000
vt 0.375000 0.093750
vt 0.625000 0.250000
vt 0.625000 0.281250
vt 0.375000 0.531250
vt 0.343750 0.562500
vt 0.343750 0.531250
vt 0.625000 0.531250
vt 0.375000 0.562500
vt 0.250000 0.531250
vt 0.218750 0.562500
vt 0.218750 0.531250
vt 0.497863 0.129605
vt 0.375346 0.252122
vt 0.375346 0.129605
vt 0.625000 0.156250
vt 0.375000 0.187500
vt 0.375000 0.156250
vt 0.625000 0.031250
vt 0.375000 0.062500
vt 0.375000 0.031250
vt 0.497863 0.619673
vt 0.375346 0.742189
vt 0.375346 0.619673
vt 0.250000 0.656250
vt 0.218750 0.687500
vt 0.218750 0.656250
vt 0.625000 0.656250
vt 0.375000 0.687500
vt 0.375000 0.656250
vt 0.343750 0.687500
vt 0.343750 0.656250
vt 0.625000 0.062500
vt 0.312500 0.656250
vt 0.281250 0.687500
vt 0.281250 0.656250
vt 0.252829 0.619673
vt 0.130312 0.742189
vt 0.130312 0.619673
vt 0.252829 0.129605
vt 0.130312 0.252122
vt 0.130312 0.129605
vt 0.312500 0.531250
vt 0.281250 0.562500
vt 0.281250 0.531250
vt 0.312500 0.593750
vt 0.281250 0.625000
vt 0.281250 0.593750
vt 0.252829 0.374639
vt 0.130312 0.497156
vt 0.130312 0.374639
vt 0.252829 0.864706
vt 0.130312 0.987223
vt 0.130312 0.864706
vt 0.625000 0.781250
vt 0.375000 0.812500
vt 0.375000 0.781250
vt 0.625000 0.406250
vt 0.375000 0.437500
vt 0.375000 0.406250
vt 0.312500 0.718750
vt 0.281250 0.750000
vt 0.281250 0.718750
vt 0.742896 0.619673
vt 0.620379 0.742189
vt 0.620379 0.619673
vt 0.187500 0.656250
vt 0.156250 0.687500
vt 0.156250 0.656250
vt 0.187500 0.531250
vt 0.156250 0.562500
vt 0.156250 0.531250
vt 0.742896 0.129605
vt 0.620379 0.252122
vt 0.620379 0.129605
vt 0.742896 0.374639
vt 0.620379 0.497156
vt 0.620379 0.374639
vt 0.187500 0.593750
vt 0.156250 0.625000
vt 0.156250 0.593750
vt 0.187500 0.718750
vt 0.156250 0.750000
vt 0.156250 0.718750
vt 0.375000 0.312500
vt 0.375000 0.281250
vt 0.625000 0.906250
vt 0.375000 0.937500
vt 0.375000 0.906250
vt 0.742896 0.864706
vt 0.620379 0.987223
vt 0.620379 0.864706
vt 0.742896 0.742189
vt 0.187500 0.687500
vt 0.312500 0.687500
vt 0.252829 0.742189
vt 0.625000 0.000000
vt 0.375000 0.000000
vt 0.497863 0.742189
vt 0.250000 0.687500
vt 0.625000 0.687500
vt 0.843750 0.531250
vt 0.843750 0.562500
vt 0.187500 0.625000
vt 0.742896 0.497156
vt 0.252829 0.497156
vt 0.312500 0.625000
vt 0.625000 0.625000
vt 0.250000 0.625000
vt 0.497863 0.497156
vt 0.187500 0.562500
vt 0.742896 0.252122
vt 0.252829 0.252122
vt 0.312500 0.562500
vt 0.625000 0.125000
vt 0.625000 0.562500
vt 0.250000 0.562500
vt 0.497863 0.252122
vt 0.742896 0.007089
vt 0.620379 0.007089
vt 0.187500 0.500000
vt 0.156250 0.500000
vt 0.312500 0.500000
vt 0.281250 0.500000
vt 0.252829 0.007089
vt 0.130312 0.007089
vt 0.497863 0.007089
vt 0.375346 0.007089
vt 0.250000 0.500000
vt 0.218750 0.500000
vt 0.625000 0.500000
vt 0.343750 0.500000
vt 0.843750 0.500000
vt 0.250000 0.750000
vt 0.625000 0.375000
vt 0.252829 0.987223
vt 0.625000 0.812500
vt 0.625000 0.750000
vt 0.843750 0.656250
vt 0.843750 0.687500
vt 0.625000 1.000000
vt 0.625000 0.437500
vt 0.312500 0.750000
vt 0.497863 0.987223
vt 0.625000 0.875000
vt 0.187500 0.750000
vt 0.625000 0.312500
vt 0.865413 0.007089
vt 0.125000 0.531250
vt 0.125000 0.500000
vt 0.865413 0.252122
vt 0.125000 0.593750
vt 0.125000 0.562500
vt 0.865413 0.497156
vt 0.125000 0.656250
vt 0.125000 0.625000
vt 0.865413 0.742189
vt 0.125000 0.718750
vt 0.125000 0.687500
vt 0.125000 0.750000
vt 0.865413 0.619673
vt 0.865413 0.129605
vt 0.865413 0.374639
vt 0.625000 0.937500
vt 0.865413 0.864706
vt 0.742896 0.987223
vt 0.996682 0.873934
vt 0.872865 0.997751
vt 0.872865 0.873934
vt 0.996682 0.378665
vt 0.872865 0.502482
vt 0.872865 0.378665
vt 0.996682 0.131031
vt 0.872865 0.254848
vt 0.872865 0.131031
vt 0.996682 0.626300
vt 0.872865 0.750117
vt 0.872865 0.626300
vt 0.996682 0.750117
vt 0.996682 0.502482
vt 0.996682 0.254848
vt 0.996682 0.007214
vt 0.872865 0.007214
vt 0.129962 0.007214
vt 0.006145 0.131031
vt 0.006145 0.007214
vt 0.129962 0.873934
vt 0.006145 0.997751
vt 0.006145 0.873934
vt 0.843750 0.593750
vt 0.843750 0.625000
vt 0.843750 0.718750
vt 0.843750 0.750000
vt 0.656250 0.750000
vt 0.656250 0.718750
vt 0.656250 0.531250
vt 0.656250 0.500000
vt 0.129962 0.131031
vt 0.865413 0.987223
vt 0.996682 0.997751
vt 0.129962 0.997751
vt 0.656250 0.656250
vt 0.656250 0.625000
vt 0.656250 0.593750
vt 0.656250 0.562500
vt 0.129962 0.254848
vt 0.006145 0.378665
vt 0.006145 0.254848
vt 0.129962 0.502482
vt 0.006145 0.626300
vt 0.006145 0.502482
vt 0.129962 0.750117
vt 0.006145 0.750117
vt 0.129962 0.378665
vt 0.129962 0.626300
vt 0.656250 0.687500
s 0
usemtl texture
f 19/1/1 167/2/1 81/2/1
f 146/3/2 8/4/2 150/5/2
f 81/2/1 6/6/1 83/7/1
f 56/8/3 109/9/3 120/10/3
f 52/11/4 4/12/4 56/8/4
f 110/13/5 2/14/5 114/15/5
f 128/16/5 9/17/5 132/18/5
f 53/19/3 127/20/3 138/21/3
f 92/22/2 11/23/2 96/24/2
f 54/25/6 92/26/6 102/27/6
f 74/28/6 98/29/6 106/30/6
f 73/31/3 134/32/3 142/33/3
f 72/34/4 16/35/4 76/36/4
f 76/36/3 116/37/3 124/38/3
f 61/39/1 13/40/1 63/41/1
f 5/42/5 181/43/5 151/43/5
f 82/44/3 117/45/3 126/46/3
f 84/47/4 20/48/4 82/44/4
f 85/49/3 135/50/3 144/51/3
f 86/52/6 99/53/6 108/54/6
f 75/55/1 21/56/1 71/57/1
f 55/58/1 25/59/1 51/60/1
f 66/61/6 100/62/6 104/63/6
f 65/64/3 136/65/3 140/66/3
f 64/67/4 30/68/4 62/69/4
f 62/69/3 118/70/3 122/71/3
f 55/58/1 177/72/1 29/72/1
f 67/73/3 95/74/3 103/75/3
f 68/76/6 113/77/6 121/78/6
f 87/79/6 112/80/6 125/81/6
f 88/82/3 94/83/3 107/84/3
f 77/85/3 93/86/3 105/87/3
f 78/88/6 111/89/6 123/90/6
f 57/91/6 115/92/6 119/93/6
f 115/94/2 31/95/2 109/96/2
f 97/97/5 33/98/5 91/99/5
f 58/100/3 96/101/3 101/102/3
f 69/103/6 131/104/6 139/105/6
f 70/106/3 149/107/3 157/108/3
f 89/109/3 148/110/3 161/111/3
f 90/112/6 130/113/6 143/114/6
f 79/115/6 129/116/6 141/117/6
f 80/118/3 147/119/3 159/120/3
f 59/121/3 150/122/3 155/123/3
f 151/43/5 41/124/5 145/125/5
f 133/126/2 43/127/2 127/128/2
f 60/129/6 133/130/6 137/131/6
f 50/132/6 137/131/6 131/104/6
f 49/133/3 155/123/3 149/107/3
f 40/134/3 101/102/3 95/74/3
f 39/135/6 119/93/6 113/77/6
f 7/136/1 51/60/1 8/137/1
f 28/138/6 102/27/6 100/62/6
f 27/139/3 138/21/3 136/65/3
f 26/140/4 56/8/4 30/68/4
f 30/68/3 120/10/3 118/70/3
f 162/141/4 183/142/4 153/142/4
f 45/143/3 157/108/3 147/119/3
f 46/144/6 139/105/6 129/116/6
f 35/145/6 121/78/6 111/89/6
f 36/146/3 103/75/3 93/86/3
f 16/35/3 122/71/3 116/37/3
f 14/147/4 62/69/4 16/35/4
f 17/148/3 140/66/3 134/32/3
f 18/149/6 104/63/6 98/29/6
f 29/72/1 63/41/1 25/59/1
f 48/150/3 159/120/3 148/110/3
f 47/151/6 141/117/6 130/113/6
f 38/152/6 123/90/6 112/80/6
f 37/153/3 105/87/3 94/83/3
f 15/154/1 71/57/1 13/40/1
f 20/48/3 124/38/3 117/45/3
f 22/155/4 76/36/4 20/48/4
f 23/156/3 142/33/3 135/50/3
f 24/157/6 106/30/6 99/53/6
f 44/158/6 143/114/6 128/159/6
f 41/160/3 161/111/3 145/161/3
f 33/162/3 107/84/3 91/163/3
f 32/164/6 125/81/6 110/165/6
f 12/166/6 108/54/6 97/167/6
f 9/168/3 144/51/3 132/169/3
f 1/170/4 82/44/4 2/14/4
f 2/14/3 126/46/3 114/171/3
f 151/172/4 188/141/4 162/141/4
f 19/1/1 83/7/1 21/56/1
f 97/167/6 87/79/6 32/164/6
f 91/163/3 85/49/3 9/168/3
f 99/53/6 78/88/6 38/152/6
f 94/83/3 73/31/3 23/156/3
f 98/29/6 68/76/6 35/145/6
f 93/86/3 65/64/3 17/148/3
f 100/62/6 57/91/6 39/135/6
f 95/74/3 53/19/3 27/139/3
f 101/102/3 11/173/3 53/19/3
f 12/174/5 91/99/5 9/17/5
f 105/87/3 17/148/3 73/31/3
f 107/84/3 23/156/3 85/49/3
f 103/75/3 27/139/3 65/64/3
f 104/63/6 39/135/6 68/76/6
f 108/54/6 38/152/6 87/79/6
f 106/30/6 35/145/6 78/88/6
f 102/27/6 34/175/6 57/91/6
f 34/176/2 96/24/2 31/95/2
f 114/171/3 88/82/3 33/162/3
f 52/11/4 166/177/4 3/177/4
f 117/45/3 77/85/3 37/153/3
f 158/178/4 184/179/4 154/179/4
f 116/37/3 67/73/3 36/146/3
f 7/136/1 176/58/1 55/58/1
f 118/70/3 58/100/3 40/134/3
f 146/3/2 164/180/2 7/180/2
f 3/177/2 109/96/2 4/12/2
f 15/154/1 173/55/1 75/55/1
f 75/55/1 174/1/1 19/1/1
f 122/71/3 40/134/3 67/73/3
f 126/46/3 37/153/3 88/82/3
f 124/38/3 36/146/3 77/85/3
f 32/181/5 114/15/5 33/98/5
f 120/10/3 31/182/3 58/100/3
f 132/169/3 89/109/3 41/160/3
f 128/159/6 86/52/6 12/166/6
f 135/50/3 80/118/3 48/150/3
f 130/113/6 74/28/6 24/157/6
f 134/32/3 70/106/3 45/143/3
f 129/116/6 66/61/6 18/149/6
f 136/65/3 59/121/3 49/133/3
f 131/104/6 54/25/6 28/138/6
f 137/131/6 10/183/6 54/25/6
f 10/184/2 127/128/2 11/23/2
f 141/117/6 18/149/6 74/28/6
f 143/114/6 24/157/6 86/52/6
f 139/105/6 28/138/6 66/61/6
f 140/66/3 49/133/3 70/106/3
f 144/51/3 48/150/3 89/109/3
f 142/33/3 45/143/3 80/118/3
f 138/21/3 43/185/3 59/121/3
f 44/186/5 132/18/5 41/124/5
f 151/187/6 90/112/6 44/158/6
f 145/161/3 83/188/3 6/189/3
f 153/190/6 79/115/6 47/151/6
f 148/110/3 71/191/3 21/192/3
f 152/193/6 69/103/6 46/144/6
f 147/119/3 63/194/3 13/195/3
f 154/196/6 60/129/6 50/132/6
f 149/107/3 51/197/3 25/198/3
f 5/42/5 145/125/5 6/6/5
f 155/123/3 8/199/3 51/197/3
f 159/120/3 13/195/3 71/191/3
f 161/111/3 21/192/3 83/188/3
f 157/108/3 25/198/3 63/194/3
f 158/200/6 50/132/6 69/103/6
f 162/201/6 47/151/6 90/112/6
f 160/202/6 46/144/6 79/115/6
f 42/203/2 150/5/2 43/127/2
f 156/204/6 42/205/6 60/129/6
f 176/206/6 163/207/6 185/208/6
f 173/209/6 182/210/6 187/211/6
f 167/212/6 183/213/6 188/214/6
f 171/215/6 184/216/6 186/217/6
f 177/218/6 185/208/6 184/216/6
f 172/219/6 186/217/6 182/210/6
f 174/220/6 187/211/6 183/213/6
f 168/221/6 188/214/6 181/222/6
f 169/223/6 175/224/6 170/225/6
f 178/226/6 166/227/6 165/228/6
f 61/39/1 172/154/1 15/154/1
f 160/229/4 182/230/4 152/230/4
f 29/72/1 171/39/1 61/39/1
f 81/2/1 168/42/1 5/42/1
f 153/142/4 187/229/4 160/229/4
f 110/13/5 170/170/5 1/170/5
f 156/231/4 163/232/4 146/232/4
f 152/230/4 186/178/4 158/178/4
f 115/233/1 178/234/1 119/234/1
f 1/170/4 175/47/4 84/47/4
f 154/179/4 185/231/4 156/231/4
f 125/235/1 169/236/1 110/236/1
f 3/177/2 180/94/2 115/94/2
f 19/1/1 174/1/1 167/2/1
f 146/3/2 7/180/2 8/4/2
f 81/2/1 5/42/1 6/6/1
f 56/8/3 4/12/3 109/9/3
f 52/11/4 3/177/4 4/12/4
f 110/13/5 1/170/5 2/14/5
f 128/16/5 12/174/5 9/17/5
f 53/19/3 11/173/3 127/20/3
f 92/22/2 10/184/2 11/23/2
f 54/25/6 10/183/6 92/26/6
f 74/28/6 18/149/6 98/29/6
f 73/31/3 17/148/3 134/32/3
f 72/34/4 14/147/4 16/35/4
f 76/36/3 16/35/3 116/37/3
f 61/39/1 15/154/1 13/40/1
f 5/42/5 168/42/5 181/43/5
f 26/140/1 216/11/1 52/11/1
f 82/44/3 20/48/3 117/45/3
f 84/47/4 22/155/4 20/48/4
f 85/49/3 23/156/3 135/50/3
f 86/52/6 24/157/6 99/53/6
f 75/55/1 19/1/1 21/56/1
f 55/58/1 29/72/1 25/59/1
f 66/61/6 28/138/6 100/62/6
f 65/64/3 27/139/3 136/65/3
f 64/67/4 26/140/4 30/68/4
f 62/69/3 30/68/3 118/70/3
f 55/58/1 176/58/1 177/72/1
f 67/73/3 40/134/3 95/74/3
f 68/76/6 39/135/6 113/77/6
f 87/79/6 38/152/6 112/80/6
f 88/82/3 37/153/3 94/83/3
f 77/85/3 36/146/3 93/86/3
f 78/88/6 35/145/6 111/89/6
f 57/91/6 34/175/6 115/92/6
f 115/94/2 34/176/2 31/95/2
f 97/97/5 32/181/5 33/98/5
f 58/100/3 31/182/3 96/101/3
f 69/103/6 50/132/6 131/104/6
f 70/106/3 49/133/3 149/107/3
f 89/109/3 48/150/3 148/110/3
f 90/112/6 47/151/6 130/113/6
f 79/115/6 46/144/6 129/116/6
f 80/118/3 45/143/3 147/119/3
f 59/121/3 43/185/3 150/122/3
f 151/43/5 44/186/5 41/124/5
f 133/126/2 42/203/2 43/127/2
f 60/129/6 42/205/6 133/130/6
f 50/132/6 60/129/6 137/131/6
f 49/133/3 59/121/3 155/123/3
f 40/134/3 58/100/3 101/102/3
f 39/135/6 57/91/6 119/93/6
f 7/136/1 55/58/1 51/60/1
f 28/138/6 54/25/6 102/27/6
f 27/139/3 53/19/3 138/21/3
f 26/140/4 52/11/4 56/8/4
f 30/68/3 56/8/3 120/10/3
f 162/141/4 188/141/4 183/142/4
f 45/143/3 70/106/3 157/108/3
f 46/144/6 69/103/6 139/105/6
f 35/145/6 68/76/6 121/78/6
f 36/146/3 67/73/3 103/75/3
f 179/235/2 195/235/2 214/235/2
f 16/35/3 62/69/3 122/71/3
f 14/147/4 64/67/4 62/69/4
f 17/148/3 65/64/3 140/66/3
f 18/149/6 66/61/6 104/63/6
f 29/72/1 61/39/1 63/41/1
f 48/150/3 80/118/3 159/120/3
f 47/151/6 79/115/6 141/117/6
f 38/152/6 78/88/6 123/90/6
f 37/153/3 77/85/3 105/87/3
f 15/154/1 75/55/1 71/57/1
f 165/228/5 211/226/5 178/226/5
f 20/48/3 76/36/3 124/38/3
f 22/155/4 72/34/4 76/36/4
f 23/156/3 73/31/3 142/33/3
f 24/157/6 74/28/6 106/30/6
f 44/158/6 90/112/6 143/114/6
f 41/160/3 89/109/3 161/111/3
f 33/162/3 88/82/3 107/84/3
f 32/164/6 87/79/6 125/81/6
f 12/166/6 86/52/6 108/54/6
f 9/168/3 85/49/3 144/51/3
f 1/170/4 84/47/4 82/44/4
f 2/14/3 82/44/3 126/46/3
f 151/172/4 181/172/4 188/141/4
f 19/1/1 81/2/1 83/7/1
f 97/167/6 108/54/6 87/79/6
f 91/163/3 107/84/3 85/49/3
f 99/53/6 106/30/6 78/88/6
f 94/83/3 105/87/3 73/31/3
f 98/29/6 104/63/6 68/76/6
f 93/86/3 103/75/3 65/64/3
f 100/62/6 102/27/6 57/91/6
f 95/74/3 101/102/3 53/19/3
f 101/102/3 96/101/3 11/173/3
f 12/174/5 97/97/5 91/99/5
f 105/87/3 93/86/3 17/148/3
f 107/84/3 94/83/3 23/156/3
f 103/75/3 95/74/3 27/139/3
f 104/63/6 100/62/6 39/135/6
f 108/54/6 99/53/6 38/152/6
f 106/30/6 98/29/6 35/145/6
f 102/27/6 92/26/6 34/175/6
f 34/176/2 92/22/2 96/24/2
f 114/171/3 126/46/3 88/82/3
f 52/11/4 165/11/4 166/177/4
f 117/45/3 124/38/3 77/85/3
f 158/178/4 186/178/4 184/179/4
f 116/37/3 122/71/3 67/73/3
f 7/136/1 164/136/1 176/58/1
f 118/70/3 120/10/3 58/100/3
f 146/3/2 163/3/2 164/180/2
f 3/177/2 115/94/2 109/96/2
f 15/154/1 172/154/1 173/55/1
f 75/55/1 173/55/1 174/1/1
f 72/34/1 199/147/1 14/147/1
f 179/237/2 213/224/2 175/224/2
f 122/71/3 118/70/3 40/134/3
f 126/46/3 117/45/3 37/153/3
f 124/38/3 116/37/3 36/146/3
f 32/181/5 110/13/5 114/15/5
f 120/10/3 109/9/3 31/182/3
f 132/169/3 144/51/3 89/109/3
f 128/159/6 143/114/6 86/52/6
f 135/50/3 142/33/3 80/118/3
f 130/113/6 141/117/6 74/28/6
f 134/32/3 140/66/3 70/106/3
f 129/116/6 139/105/6 66/61/6
f 136/65/3 138/21/3 59/121/3
f 131/104/6 137/131/6 54/25/6
f 137/131/6 133/130/6 10/183/6
f 10/184/2 133/126/2 127/128/2
f 141/117/6 129/116/6 18/149/6
f 143/114/6 130/113/6 24/157/6
f 139/105/6 131/104/6 28/138/6
f 140/66/3 136/65/3 49/133/3
f 144/51/3 135/50/3 48/150/3
f 142/33/3 134/32/3 45/143/3
f 138/21/3 127/20/3 43/185/3
f 44/186/5 128/16/5 132/18/5
f 151/187/6 162/201/6 90/112/6
f 145/161/3 161/111/3 83/188/3
f 153/190/6 160/202/6 79/115/6
f 148/110/3 159/120/3 71/191/3
f 152/193/6 158/200/6 69/103/6
f 147/119/3 157/108/3 63/194/3
f 154/196/6 156/204/6 60/129/6
f 149/107/3 155/123/3 51/197/3
f 5/42/5 151/43/5 145/125/5
f 155/123/3 150/122/3 8/199/3
f 159/120/3 147/119/3 13/195/3
f 161/111/3 148/110/3 21/192/3
f 157/108/3 149/107/3 25/198/3
f 158/200/6 154/196/6 50/132/6
f 162/201/6 153/190/6 47/151/6
f 160/202/6 152/193/6 46/144/6
f 42/203/2 146/3/2 150/5/2
f 156/204/6 146/238/6 42/205/6
f 176/206/6 164/239/6 163/207/6
f 173/209/6 172/219/6 182/210/6
f 167/212/6 174/220/6 183/213/6
f 171/215/6 177/218/6 184/216/6
f 177/218/6 176/206/6 185/208/6
f 172/219/6 171/215/6 186/217/6
f 174/220/6 173/209/6 187/211/6
f 168/221/6 167/212/6 188/214/6
f 169/223/6 179/237/6 175/224/6
f 14/147/1 205/67/1 64/67/1
f 113/77/4 193/78/4 121/78/4
f 84/47/2 213/47/2 190/47/2
f 178/226/6 180/240/6 166/227/6
f 119/93/4 192/77/4 113/77/4
f 64/67/1 204/140/1 26/140/1
f 22/155/1 200/34/1 72/34/1
f 61/39/1 171/39/1 172/154/1
f 160/229/4 187/229/4 182/230/4
f 29/72/1 177/72/1 171/39/1
f 81/2/1 167/2/1 168/42/1
f 153/142/4 183/142/4 187/229/4
f 165/11/2 216/11/2 210/11/2
f 110/13/5 169/13/5 170/170/5
f 156/231/4 185/231/4 163/232/4
f 152/230/4 182/230/4 186/178/4
f 115/233/1 180/233/1 178/234/1
f 1/170/4 170/170/4 175/47/4
f 123/90/4 194/80/4 112/80/4
f 111/89/4 197/90/4 123/90/4
f 154/179/4 184/179/4 185/231/4
f 121/78/4 196/89/4 111/89/4
f 119/234/2 211/234/2 198/234/2
f 84/47/1 189/155/1 22/155/1
f 125/235/1 179/235/1 169/236/1
f 112/80/4 195/81/4 125/81/4
f 3/177/2 166/177/2 180/94/2
f 190/47/4 191/155/4 189/155/4
f 200/34/4 201/147/4 199/147/4
f 193/241/1 202/242/1 196/242/1
f 197/243/1 203/244/1 194/244/1
f 205/67/4 206/140/4 204/140/4
f 203/245/6 207/246/6 191/247/6
f 202/248/6 208/249/6 201/250/6
f 209/251/6 210/228/6 206/252/6
f 212/253/6 201/250/6 207/246/6
f 214/237/6 191/247/6 213/224/6
f 215/254/6 206/252/6 208/249/6
f 198/234/1 209/255/1 192/255/1
f 199/147/4 208/67/4 205/67/4
f 196/242/1 212/243/1 197/243/1
f 194/244/1 214/235/1 195/235/1
f 192/255/1 215/241/1 193/241/1
f 189/155/4 207/34/4 200/34/4
f 204/140/4 210/11/4 216/11/4
f 190/47/4 213/47/4 191/155/4
f 200/34/4 207/34/4 201/147/4
f 193/241/1 215/241/1 202/242/1
f 197/243/1 212/243/1 203/244/1
f 205/67/4 208/67/4 206/140/4
f 203/245/6 212/253/6 207/246/6
f 202/248/6 215/254/6 208/249/6
f 209/251/6 211/226/6 210/228/6
f 212/253/6 202/248/6 201/250/6
f 214/237/6 203/245/6 191/247/6
f 215/254/6 209/251/6 206/252/6
f 198/234/1 211/234/1 209/255/1
f 199/147/4 201/147/4 208/67/4
f 196/242/1 202/242/1 212/243/1
f 194/244/1 203/244/1 214/235/1
f 192/255/1 209/255/1 215/241/1
f 189/155/4 191/155/4 207/34/4
f 204/140/4 206/140/4 210/11/4
f 26/140/1 204/140/1 216/11/1
f 179/235/2 125/235/2 195/235/2
f 165/228/5 210/228/5 211/226/5
f 72/34/1 200/34/1 199/147/1
f 179/237/2 214/237/2 213/224/2
f 14/147/1 199/147/1 205/67/1
f 113/77/4 192/77/4 193/78/4
f 84/47/2 175/47/2 213/47/2
f 119/93/4 198/93/4 192/77/4
f 64/67/1 205/67/1 204/140/1
f 22/155/1 189/155/1 200/34/1
f 165/11/2 52/11/2 216/11/2
f 123/90/4 197/90/4 194/80/4
f 111/89/4 196/89/4 197/90/4
f 121/78/4 193/78/4 196/89/4
f 119/234/2 178/234/2 211/234/2
f 84/47/1 190/47/1 189/155/1
f 112/80/4 194/80/4 195/81/4
