# Blender 4.2.3 LTS
# www.blender.org
mtllib Road_Straight.mtl
o Cube
v 30.000000 1.000000 -30.000000
v 30.000000 -1.000000 -30.000000
v 30.000000 1.000000 30.000000
v 30.000000 -1.000000 30.000000
v -30.000000 1.000000 -30.000000
v -30.000000 -1.000000 -30.000000
v -30.000000 1.000000 30.000000
v -30.000000 -1.000000 30.000000
v 0.000000 -1.000000 -30.000000
v 0.000000 1.000000 30.000000
v 0.000000 -1.000000 30.000000
v 0.000000 1.000000 -30.000000
v -30.000000 -1.000000 0.000000
v 30.000000 1.000000 0.000000
v -30.000000 1.000000 0.000000
v 30.000000 -1.000000 0.000000
v 0.000000 -1.000000 0.000000
v 0.000000 1.000000 0.000000
v -30.000000 1.000000 -15.000000
v 30.000000 -1.000000 -15.000000
v -30.000000 -1.000000 -15.000000
v 30.000000 1.000000 -15.000000
v 0.000000 -1.000000 -15.000000
v 0.000000 1.000000 -15.000000
v -30.000000 -1.000000 15.000000
v 30.000000 1.000000 15.000000
v 0.000000 -1.000000 15.000000
v 0.000000 1.000000 15.000000
v -30.000000 1.000000 15.000000
v 30.000000 -1.000000 15.000000
v 15.000000 -1.000000 30.000000
v 15.000000 1.000000 -30.000000
v 15.000000 -1.000000 -30.000000
v 15.000000 1.000000 30.000000
v 15.000000 1.000000 0.000000
v 15.000000 -1.000000 0.000000
v 15.000000 -1.000000 -15.000000
v 15.000000 1.000000 -15.000000
v 15.000000 1.000000 15.000000
v 15.000000 -1.000000 15.000000
v -15.000000 -1.000000 -30.000000
v -15.000000 1.000000 30.000000
v -15.000000 -1.000000 30.000000
v -15.000000 1.000000 -30.000000
v -15.000000 -1.000000 0.000000
v -15.000000 1.000000 0.000000
v -15.000000 1.000000 -15.000000
v -15.000000 -1.000000 -15.000000
v -15.000000 -1.000000 15.000000
v -15.000000 1.000000 15.000000
v -30.000000 -1.000000 22.500000
v 30.000000 1.000000 22.500000
v 0.000000 -1.000000 22.500000
v 0.000000 1.000000 22.500000
v -30.000000 1.000000 22.500000
v 30.000000 -1.000000 22.500000
v 15.000000 1.000000 22.500000
v 15.000000 -1.000000 22.500000
v -15.000000 -1.000000 22.500000
v -15.000000 1.000000 22.500000
v -30.000000 1.000000 7.500000
v 30.000000 -1.000000 7.500000
v -30.000000 -1.000000 7.500000
v 30.000000 1.000000 7.500000
v 0.000000 -1.000000 7.500000
v 0.000000 1.000000 7.500000
v 15.000000 -1.000000 7.500000
v 15.000000 1.000000 7.500000
v -15.000000 1.000000 7.500000
v -15.000000 -1.000000 7.500000
v -30.000000 -1.000000 -7.500000
v 30.000000 1.000000 -7.500000
v 0.000000 -1.000000 -7.500000
v 0.000000 1.000000 -7.500000
v -30.000000 1.000000 -7.500000
v 30.000000 -1.000000 -7.500000
v 15.000000 -1.000000 -7.500000
v 15.000000 1.000000 -7.500000
v -15.000000 1.000000 -7.500000
v -15.000000 -1.000000 -7.500000
v -30.000000 1.000000 -22.500000
v 30.000000 -1.000000 -22.500000
v -30.000000 -1.000000 -22.500000
v 30.000000 1.000000 -22.500000
v 0.000000 -1.000000 -22.500000
v 0.000000 1.000000 -22.500000
v 15.000000 1.000000 -22.500000
v 15.000000 -1.000000 -22.500000
v -15.000000 -1.000000 -22.500000
v -15.000000 1.000000 -22.500000
v 7.500000 -1.000000 -30.000000
v 7.500000 1.000000 30.000000
v 7.500000 -1.000000 0.000000
v 7.500000 -1.000000 -15.000000
v 7.500000 -1.000000 15.000000
v 7.500000 -1.000000 30.000000
v 7.500000 1.000000 -30.000000
v 7.500000 1.000000 0.000000
v 7.500000 1.000000 -15.000000
v 7.500000 1.000000 15.000000
v 7.500000 -1.000000 22.500000
v 7.500000 1.000000 22.500000
v 7.500000 -1.000000 7.500000
v 7.500000 1.000000 7.500000
v 7.500000 -1.000000 -7.500000
v 7.500000 1.000000 -7.500000
v 7.500000 -1.000000 -22.500000
v 7.500000 1.000000 -22.500000
v 22.500000 -1.000000 30.000000
v 22.500000 1.000000 -30.000000
v 22.500000 1.000000 0.000000
v 22.500000 1.000000 -15.000000
v 22.500000 1.000000 15.000000
v 22.500000 -1.000000 -30.000000
v 22.500000 1.000000 30.000000
v 22.500000 -1.000000 0.000000
v 22.500000 -1.000000 -15.000000
v 22.500000 -1.000000 15.000000
v 22.500000 1.000000 22.500000
v 22.500000 -1.000000 22.500000
v 22.500000 1.000000 7.500000
v 22.500000 -1.000000 7.500000
v 22.500000 1.000000 -7.500000
v 22.500000 -1.000000 -7.500000
v 22.500000 1.000000 -22.500000
v 22.500000 -1.000000 -22.500000
v -7.500000 -1.000000 30.000000
v -7.500000 1.000000 -30.000000
v -7.500000 1.000000 0.000000
v -7.500000 1.000000 -15.000000
v -7.500000 1.000000 15.000000
v -7.500000 -1.000000 -30.000000
v -7.500000 1.000000 30.000000
v -7.500000 -1.000000 0.000000
v -7.500000 -1.000000 -15.000000
v -7.500000 -1.000000 15.000000
v -7.500000 1.000000 22.500000
v -7.500000 -1.000000 22.500000
v -7.500000 1.000000 7.500000
v -7.500000 -1.000000 7.500000
v -7.500000 1.000000 -7.500000
v -7.500000 -1.000000 -7.500000
v -7.500000 1.000000 -22.500000
v -7.500000 -1.000000 -22.500000
v -22.500000 -1.000000 -30.000000
v -22.500000 1.000000 30.000000
v -22.500000 -1.000000 0.000000
v -22.500000 -1.000000 -15.000000
v -22.500000 -1.000000 15.000000
v -22.500000 -1.000000 30.000000
v -22.500000 1.000000 -30.000000
v -22.500000 1.000000 0.000000
v -22.500000 1.000000 -15.000000
v -22.500000 1.000000 15.000000
v -22.500000 -1.000000 22.500000
v -22.500000 1.000000 22.500000
v -22.500000 -1.000000 7.500000
v -22.500000 1.000000 7.500000
v -22.500000 -1.000000 -7.500000
v -22.500000 1.000000 -7.500000
v -22.500000 -1.000000 -22.500000
v -22.500000 1.000000 -22.500000
v -22.500000 2.284254 30.000000
v -30.000000 2.284254 30.000000
v 30.000000 2.284254 22.500000
v 30.000000 2.284254 30.000000
v -30.000000 2.284254 -22.500000
v -30.000000 2.284254 -30.000000
v 22.500000 2.284254 -30.000000
v 30.000000 2.284254 -30.000000
v 30.000000 2.284254 -7.500000
v 30.000000 2.284254 0.000000
v -30.000000 2.284254 7.500000
v -30.000000 2.284254 0.000000
v 22.500000 2.284254 0.000000
v -30.000000 2.284254 -7.500000
v -30.000000 2.284254 -15.000000
v 30.000000 2.284254 -22.500000
v 30.000000 2.284254 -15.000000
v 22.500000 2.284254 -15.000000
v 30.000000 2.284254 7.500000
v 30.000000 2.284254 15.000000
v -30.000000 2.284254 22.500000
v -30.000000 2.284254 15.000000
v 22.500000 2.284254 15.000000
v 22.500000 2.284254 22.500000
v 22.500000 2.284254 7.500000
v 22.500000 2.284254 -7.500000
v 22.500000 2.284254 -22.500000
v 22.500000 2.284254 30.000000
v -22.500000 2.284254 -30.000000
v -22.500000 2.284254 0.000000
v -22.500000 2.284254 -15.000000
v -22.500000 2.284254 15.000000
v -22.500000 2.284254 22.500000
v -22.500000 2.284254 7.500000
v -22.500000 2.284254 -7.500000
v -22.500000 2.284254 -22.500000
vn -1.0000 -0.0000 -0.0000
vn -0.0000 -0.0000 1.0000
vn -0.0000 -1.0000 -0.0000
vn 1.0000 -0.0000 -0.0000
vn -0.0000 -0.0000 -1.0000
vn -0.0000 1.0000 -0.0000
vt 0.625000 0.187500
vt 0.625000 0.218750
vt 0.625000 0.968750
vt 0.375000 1.000000
vt 0.375000 0.968750
vt 0.375000 0.250000
vt 0.375000 0.218750
vt 0.375000 0.718750
vt 0.343750 0.750000
vt 0.343750 0.718750
vt 0.625000 0.718750
vt 0.375000 0.750000
vt 0.625000 0.468750
vt 0.375000 0.500000
vt 0.375000 0.468750
vt 0.625000 0.343750
vt 0.375000 0.375000
vt 0.375000 0.343750
vt 0.250000 0.718750
vt 0.218750 0.750000
vt 0.218750 0.718750
vt 0.625000 0.843750
vt 0.375000 0.875000
vt 0.375000 0.843750
vt 0.497863 0.864706
vt 0.375346 0.987223
vt 0.375346 0.864706
vt 0.497863 0.374639
vt 0.375346 0.497156
vt 0.375346 0.374639
vt 0.250000 0.593750
vt 0.218750 0.625000
vt 0.218750 0.593750
vt 0.625000 0.593750
vt 0.375000 0.625000
vt 0.375000 0.593750
vt 0.343750 0.625000
vt 0.343750 0.593750
vt 0.625000 0.093750
vt 0.375000 0.125000
vt 0.375000 0.093750
vt 0.625000 0.250000
vt 0.625000 0.281250
vt 0.625000 0.531250
vt 0.625000 0.562500
vt 0.375000 0.531250
vt 0.343750 0.562500
vt 0.343750 0.531250
vt 0.375000 0.562500
vt 0.250000 0.531250
vt 0.218750 0.562500
vt 0.218750 0.531250
vt 0.497863 0.129605
vt 0.375346 0.252122
vt 0.375346 0.129605
vt 0.625000 0.156250
vt 0.375000 0.187500
vt 0.375000 0.156250
vt 0.625000 0.031250
vt 0.375000 0.062500
vt 0.375000 0.031250
vt 0.497863 0.619673
vt 0.375346 0.742189
vt 0.375346 0.619673
vt 0.250000 0.656250
vt 0.218750 0.687500
vt 0.218750 0.656250
vt 0.625000 0.656250
vt 0.375000 0.687500
vt 0.375000 0.656250
vt 0.343750 0.687500
vt 0.343750 0.656250
vt 0.625000 0.062500
vt 0.312500 0.656250
vt 0.281250 0.687500
vt 0.281250 0.656250
vt 0.252829 0.619673
vt 0.130312 0.742189
vt 0.130312 0.619673
vt 0.252829 0.129605
vt 0.130312 0.252122
vt 0.130312 0.129605
vt 0.312500 0.531250
vt 0.281250 0.562500
vt 0.281250 0.531250
vt 0.312500 0.593750
vt 0.281250 0.625000
vt 0.281250 0.593750
vt 0.252829 0.374639
vt 0.130312 0.497156
vt 0.130312 0.374639
vt 0.252829 0.864706
vt 0.130312 0.987223
vt 0.130312 0.864706
vt 0.625000 0.781250
vt 0.375000 0.812500
vt 0.375000 0.781250
vt 0.625000 0.406250
vt 0.375000 0.437500
vt 0.375000 0.406250
vt 0.312500 0.718750
vt 0.281250 0.750000
vt 0.281250 0.718750
vt 0.742896 0.619673
vt 0.620379 0.742189
vt 0.620379 0.619673
vt 0.187500 0.656250
vt 0.156250 0.687500
vt 0.156250 0.656250
vt 0.187500 0.531250
vt 0.156250 0.562500
vt 0.156250 0.531250
vt 0.742896 0.129605
vt 0.620379 0.252122
vt 0.620379 0.129605
vt 0.742896 0.374639
vt 0.620379 0.497156
vt 0.620379 0.374639
vt 0.187500 0.593750
vt 0.156250 0.625000
vt 0.156250 0.593750
vt 0.187500 0.718750
vt 0.156250 0.750000
vt 0.156250 0.718750
vt 0.375000 0.312500
vt 0.375000 0.281250
vt 0.625000 0.906250
vt 0.375000 0.937500
vt 0.375000 0.906250
vt 0.742896 0.864706
vt 0.620379 0.987223
vt 0.620379 0.864706
vt 0.742896 0.742189
vt 0.187500 0.687500
vt 0.312500 0.687500
vt 0.252829 0.742189
vt 0.625000 0.000000
vt 0.375000 0.000000
vt 0.497863 0.742189
vt 0.250000 0.687500
vt 0.625000 0.687500
vt 0.843750 0.531250
vt 0.843750 0.562500
vt 0.187500 0.625000
vt 0.742896 0.497156
vt 0.252829 0.497156
vt 0.312500 0.625000
vt 0.625000 0.625000
vt 0.250000 0.625000
vt 0.497863 0.497156
vt 0.187500 0.562500
vt 0.742896 0.252122
vt 0.252829 0.252122
vt 0.312500 0.562500
vt 0.625000 0.125000
vt 0.656250 0.656250
vt 0.656250 0.625000
vt 0.250000 0.562500
vt 0.497863 0.252122
vt 0.742896 0.007089
vt 0.620379 0.007089
vt 0.187500 0.500000
vt 0.156250 0.500000
vt 0.312500 0.500000
vt 0.281250 0.500000
vt 0.252829 0.007089
vt 0.130312 0.007089
vt 0.497863 0.007089
vt 0.375346 0.007089
vt 0.250000 0.500000
vt 0.218750 0.500000
vt 0.625000 0.500000
vt 0.343750 0.500000
vt 0.843750 0.500000
vt 0.250000 0.750000
vt 0.625000 0.375000
vt 0.252829 0.987223
vt 0.625000 0.812500
vt 0.625000 0.750000
vt 0.843750 0.656250
vt 0.843750 0.687500
vt 0.625000 1.000000
vt 0.656250 0.593750
vt 0.656250 0.562500
vt 0.625000 0.437500
vt 0.312500 0.750000
vt 0.497863 0.987223
vt 0.625000 0.875000
vt 0.187500 0.750000
vt 0.625000 0.312500
vt 0.865413 0.007089
vt 0.125000 0.531250
vt 0.125000 0.500000
vt 0.865413 0.252122
vt 0.125000 0.593750
vt 0.125000 0.562500
vt 0.865413 0.497156
vt 0.125000 0.656250
vt 0.125000 0.625000
vt 0.865413 0.742189
vt 0.125000 0.718750
vt 0.125000 0.687500
vt 0.125000 0.750000
vt 0.865413 0.619673
vt 0.865413 0.129605
vt 0.865413 0.374639
vt 0.625000 0.937500
vt 0.865413 0.864706
vt 0.742896 0.987223
vt 0.996682 0.873934
vt 0.872865 0.997751
vt 0.872865 0.873934
vt 0.996682 0.378665
vt 0.872865 0.502482
vt 0.872865 0.378665
vt 0.996682 0.131031
vt 0.872865 0.254848
vt 0.872865 0.131031
vt 0.996682 0.626300
vt 0.872865 0.750117
vt 0.872865 0.626300
vt 0.996682 0.750117
vt 0.996682 0.502482
vt 0.996682 0.254848
vt 0.996682 0.007214
vt 0.872865 0.007214
vt 0.129962 0.007214
vt 0.006145 0.131031
vt 0.006145 0.007214
vt 0.129962 0.254848
vt 0.006145 0.378665
vt 0.006145 0.254848
vt 0.129962 0.502482
vt 0.006145 0.626300
vt 0.006145 0.502482
vt 0.129962 0.750117
vt 0.006145 0.873934
vt 0.006145 0.750117
vt 0.129962 0.873934
vt 0.006145 0.997751
vt 0.129962 0.378665
vt 0.129962 0.131031
vt 0.129962 0.626300
vt 0.843750 0.593750
vt 0.843750 0.625000
vt 0.656250 0.718750
vt 0.656250 0.687500
vt 0.843750 0.718750
vt 0.843750 0.750000
vt 0.656250 0.750000
vt 0.656250 0.531250
vt 0.656250 0.500000
vt 0.865413 0.987223
vt 0.996682 0.997751
vt 0.129962 0.997751
s 0
usemtl texture
f 19/1/1 167/2/1 81/2/1
f 146/3/2 8/4/2 150/5/2
f 81/2/1 6/6/1 83/7/1
f 56/8/3 109/9/3 120/10/3
f 52/11/4 4/12/4 56/8/4
f 110/13/5 2/14/5 114/15/5
f 128/16/5 9/17/5 132/18/5
f 53/19/3 127/20/3 138/21/3
f 92/22/2 11/23/2 96/24/2
f 54/25/6 92/26/6 102/27/6
f 74/28/6 98/29/6 106/30/6
f 73/31/3 134/32/3 142/33/3
f 72/34/4 16/35/4 76/36/4
f 76/36/3 116/37/3 124/38/3
f 61/39/1 13/40/1 63/41/1
f 5/42/5 191/43/5 151/43/5
f 84/44/4 179/45/4 22/45/4
f 82/46/3 117/47/3 126/48/3
f 84/44/4 20/49/4 82/46/4
f 85/50/3 135/51/3 144/52/3
f 86/53/6 99/54/6 108/55/6
f 75/56/1 21/57/1 71/58/1
f 55/59/1 25/60/1 51/61/1
f 66/62/6 100/63/6 104/64/6
f 65/65/3 136/66/3 140/67/3
f 64/68/4 30/69/4 62/70/4
f 62/70/3 118/71/3 122/72/3
f 55/59/1 184/73/1 29/73/1
f 67/74/3 95/75/3 103/76/3
f 68/77/6 113/78/6 121/79/6
f 87/80/6 112/81/6 125/82/6
f 88/83/3 94/84/3 107/85/3
f 77/86/3 93/87/3 105/88/3
f 78/89/6 111/90/6 123/91/6
f 57/92/6 115/93/6 119/94/6
f 115/95/2 31/96/2 109/97/2
f 97/98/5 33/99/5 91/100/5
f 58/101/3 96/102/3 101/103/3
f 69/104/6 131/105/6 139/106/6
f 70/107/3 149/108/3 157/109/3
f 89/110/3 148/111/3 161/112/3
f 90/113/6 130/114/6 143/115/6
f 79/116/6 129/117/6 141/118/6
f 80/119/3 147/120/3 159/121/3
f 59/122/3 150/123/3 155/124/3
f 151/43/5 41/125/5 145/126/5
f 133/127/2 43/128/2 127/129/2
f 60/130/6 133/131/6 137/132/6
f 50/133/6 137/132/6 131/105/6
f 49/134/3 155/124/3 149/108/3
f 40/135/3 101/103/3 95/75/3
f 39/136/6 119/94/6 113/78/6
f 7/137/1 51/61/1 8/138/1
f 28/139/6 102/27/6 100/63/6
f 27/140/3 138/21/3 136/66/3
f 26/141/4 56/8/4 30/69/4
f 30/69/3 120/10/3 118/71/3
f 162/142/4 193/143/4 153/143/4
f 45/144/3 157/109/3 147/120/3
f 46/145/6 139/106/6 129/117/6
f 35/146/6 121/79/6 111/90/6
f 36/147/3 103/76/3 93/87/3
f 72/34/4 172/148/4 14/148/4
f 16/35/3 122/72/3 116/37/3
f 14/148/4 62/70/4 16/35/4
f 17/149/3 140/67/3 134/32/3
f 18/150/6 104/64/6 98/29/6
f 29/73/1 63/41/1 25/60/1
f 48/151/3 159/121/3 148/111/3
f 47/152/6 141/118/6 130/114/6
f 38/153/6 123/91/6 112/81/6
f 37/154/3 105/88/3 94/84/3
f 15/155/1 71/58/1 13/40/1
f 121/156/1 175/157/1 111/157/1
f 20/49/3 124/38/3 117/47/3
f 22/45/4 76/36/4 20/49/4
f 23/158/3 142/33/3 135/51/3
f 24/159/6 106/30/6 99/54/6
f 44/160/6 143/115/6 128/161/6
f 41/162/3 161/112/3 145/163/3
f 33/164/3 107/85/3 91/165/3
f 32/166/6 125/82/6 110/167/6
f 12/168/6 108/55/6 97/169/6
f 9/170/3 144/52/3 132/171/3
f 1/172/4 82/46/4 2/14/4
f 2/14/3 126/48/3 114/173/3
f 151/174/4 198/142/4 162/142/4
f 19/1/1 83/7/1 21/57/1
f 97/169/6 87/80/6 32/166/6
f 91/165/3 85/50/3 9/170/3
f 99/54/6 78/89/6 38/153/6
f 94/84/3 73/31/3 23/158/3
f 98/29/6 68/77/6 35/146/6
f 93/87/3 65/65/3 17/149/3
f 100/63/6 57/92/6 39/136/6
f 95/75/3 53/19/3 27/140/3
f 101/103/3 11/175/3 53/19/3
f 12/176/5 91/100/5 9/17/5
f 105/88/3 17/149/3 73/31/3
f 107/85/3 23/158/3 85/50/3
f 103/76/3 27/140/3 65/65/3
f 104/64/6 39/136/6 68/77/6
f 108/55/6 38/153/6 87/80/6
f 106/30/6 35/146/6 78/89/6
f 102/27/6 34/177/6 57/92/6
f 34/178/2 96/24/2 31/96/2
f 114/173/3 88/83/3 33/164/3
f 52/11/4 166/179/4 3/179/4
f 117/47/3 77/86/3 37/154/3
f 158/180/4 194/181/4 154/181/4
f 116/37/3 67/74/3 36/147/3
f 7/137/1 183/59/1 55/59/1
f 118/71/3 58/101/3 40/135/3
f 146/3/2 164/182/2 7/182/2
f 3/179/2 109/97/2 4/12/2
f 15/155/1 176/56/1 75/56/1
f 75/56/1 177/1/1 19/1/1
f 123/183/1 180/184/1 112/184/1
f 64/68/4 182/141/4 26/141/4
f 122/72/3 40/135/3 67/74/3
f 126/48/3 37/154/3 88/83/3
f 124/38/3 36/147/3 77/86/3
f 32/185/5 114/15/5 33/99/5
f 120/10/3 31/186/3 58/101/3
f 132/171/3 89/110/3 41/162/3
f 128/161/6 86/53/6 12/168/6
f 135/51/3 80/119/3 48/151/3
f 130/114/6 74/28/6 24/159/6
f 134/32/3 70/107/3 45/144/3
f 129/117/6 66/62/6 18/150/6
f 136/66/3 59/122/3 49/134/3
f 131/105/6 54/25/6 28/139/6
f 137/132/6 10/187/6 54/25/6
f 10/188/2 127/129/2 11/23/2
f 141/118/6 18/150/6 74/28/6
f 143/115/6 24/159/6 86/53/6
f 139/106/6 28/139/6 66/62/6
f 140/67/3 49/134/3 70/107/3
f 144/52/3 48/151/3 89/110/3
f 142/33/3 45/144/3 80/119/3
f 138/21/3 43/189/3 59/122/3
f 44/190/5 132/18/5 41/125/5
f 151/191/6 90/113/6 44/160/6
f 145/163/3 83/192/3 6/193/3
f 153/194/6 79/116/6 47/152/6
f 148/111/3 71/195/3 21/196/3
f 152/197/6 69/104/6 46/145/6
f 147/120/3 63/198/3 13/199/3
f 154/200/6 60/130/6 50/133/6
f 149/108/3 51/201/3 25/202/3
f 5/42/5 145/126/5 6/6/5
f 155/124/3 8/203/3 51/201/3
f 159/121/3 13/199/3 71/195/3
f 161/112/3 21/196/3 83/192/3
f 157/109/3 25/202/3 63/198/3
f 158/204/6 50/133/6 69/104/6
f 162/205/6 47/152/6 90/113/6
f 160/206/6 46/145/6 79/116/6
f 42/207/2 150/5/2 43/128/2
f 156/208/6 42/209/6 60/130/6
f 183/210/6 163/211/6 195/212/6
f 176/213/6 192/214/6 197/215/6
f 167/216/6 193/217/6 198/218/6
f 173/219/6 194/220/6 196/221/6
f 184/222/6 195/212/6 194/220/6
f 174/223/6 196/221/6 192/214/6
f 177/224/6 197/215/6 193/217/6
f 168/225/6 198/218/6 191/226/6
f 169/227/6 178/228/6 170/229/6
f 180/230/6 171/231/6 179/232/6
f 175/233/6 181/234/6 172/235/6
f 185/236/6 165/237/6 182/238/6
f 186/239/6 166/240/6 165/237/6
f 188/241/6 172/235/6 171/231/6
f 189/242/6 179/232/6 178/228/6
f 187/243/6 182/238/6 181/234/6
f 61/39/1 174/155/1 15/155/1
f 160/244/4 192/245/4 152/245/4
f 29/73/1 173/39/1 61/39/1
f 81/2/1 168/42/1 5/42/1
f 153/143/4 197/244/4 160/244/4
f 119/246/1 185/247/1 113/247/1
f 110/13/5 170/172/5 1/172/5
f 156/248/4 163/249/4 146/249/4
f 152/245/4 196/180/4 158/180/4
f 115/250/1 186/246/1 119/246/1
f 1/172/4 178/44/4 84/44/4
f 14/148/4 181/68/4 64/68/4
f 111/157/1 188/183/1 123/183/1
f 154/181/4 195/248/4 156/248/4
f 112/184/1 189/251/1 125/251/1
f 113/247/1 187/156/1 121/156/1
f 22/45/4 171/34/4 72/34/4
f 125/251/1 169/252/1 110/252/1
f 26/141/4 165/11/4 52/11/4
f 3/179/2 190/95/2 115/95/2
f 19/1/1 177/1/1 167/2/1
f 146/3/2 7/182/2 8/4/2
f 81/2/1 5/42/1 6/6/1
f 56/8/3 4/12/3 109/9/3
f 52/11/4 3/179/4 4/12/4
f 110/13/5 1/172/5 2/14/5
f 128/16/5 12/176/5 9/17/5
f 53/19/3 11/175/3 127/20/3
f 92/22/2 10/188/2 11/23/2
f 54/25/6 10/187/6 92/26/6
f 74/28/6 18/150/6 98/29/6
f 73/31/3 17/149/3 134/32/3
f 72/34/4 14/148/4 16/35/4
f 76/36/3 16/35/3 116/37/3
f 61/39/1 15/155/1 13/40/1
f 5/42/5 168/42/5 191/43/5
f 84/44/4 178/44/4 179/45/4
f 82/46/3 20/49/3 117/47/3
f 84/44/4 22/45/4 20/49/4
f 85/50/3 23/158/3 135/51/3
f 86/53/6 24/159/6 99/54/6
f 75/56/1 19/1/1 21/57/1
f 55/59/1 29/73/1 25/60/1
f 66/62/6 28/139/6 100/63/6
f 65/65/3 27/140/3 136/66/3
f 64/68/4 26/141/4 30/69/4
f 62/70/3 30/69/3 118/71/3
f 55/59/1 183/59/1 184/73/1
f 67/74/3 40/135/3 95/75/3
f 68/77/6 39/136/6 113/78/6
f 87/80/6 38/153/6 112/81/6
f 88/83/3 37/154/3 94/84/3
f 77/86/3 36/147/3 93/87/3
f 78/89/6 35/146/6 111/90/6
f 57/92/6 34/177/6 115/93/6
f 115/95/2 34/178/2 31/96/2
f 97/98/5 32/185/5 33/99/5
f 58/101/3 31/186/3 96/102/3
f 69/104/6 50/133/6 131/105/6
f 70/107/3 49/134/3 149/108/3
f 89/110/3 48/151/3 148/111/3
f 90/113/6 47/152/6 130/114/6
f 79/116/6 46/145/6 129/117/6
f 80/119/3 45/144/3 147/120/3
f 59/122/3 43/189/3 150/123/3
f 151/43/5 44/190/5 41/125/5
f 133/127/2 42/207/2 43/128/2
f 60/130/6 42/209/6 133/131/6
f 50/133/6 60/130/6 137/132/6
f 49/134/3 59/122/3 155/124/3
f 40/135/3 58/101/3 101/103/3
f 39/136/6 57/92/6 119/94/6
f 7/137/1 55/59/1 51/61/1
f 28/139/6 54/25/6 102/27/6
f 27/140/3 53/19/3 138/21/3
f 26/141/4 52/11/4 56/8/4
f 30/69/3 56/8/3 120/10/3
f 162/142/4 198/142/4 193/143/4
f 45/144/3 70/107/3 157/109/3
f 46/145/6 69/104/6 139/106/6
f 35/146/6 68/77/6 121/79/6
f 36/147/3 67/74/3 103/76/3
f 72/34/4 171/34/4 172/148/4
f 16/35/3 62/70/3 122/72/3
f 14/148/4 64/68/4 62/70/4
f 17/149/3 65/65/3 140/67/3
f 18/150/6 66/62/6 104/64/6
f 29/73/1 61/39/1 63/41/1
f 48/151/3 80/119/3 159/121/3
f 47/152/6 79/116/6 141/118/6
f 38/153/6 78/89/6 123/91/6
f 37/154/3 77/86/3 105/88/3
f 15/155/1 75/56/1 71/58/1
f 121/156/1 187/156/1 175/157/1
f 20/49/3 76/36/3 124/38/3
f 22/45/4 72/34/4 76/36/4
f 23/158/3 73/31/3 142/33/3
f 24/159/6 74/28/6 106/30/6
f 44/160/6 90/113/6 143/115/6
f 41/162/3 89/110/3 161/112/3
f 33/164/3 88/83/3 107/85/3
f 32/166/6 87/80/6 125/82/6
f 12/168/6 86/53/6 108/55/6
f 9/170/3 85/50/3 144/52/3
f 1/172/4 84/44/4 82/46/4
f 2/14/3 82/46/3 126/48/3
f 151/174/4 191/174/4 198/142/4
f 19/1/1 81/2/1 83/7/1
f 97/169/6 108/55/6 87/80/6
f 91/165/3 107/85/3 85/50/3
f 99/54/6 106/30/6 78/89/6
f 94/84/3 105/88/3 73/31/3
f 98/29/6 104/64/6 68/77/6
f 93/87/3 103/76/3 65/65/3
f 100/63/6 102/27/6 57/92/6
f 95/75/3 101/103/3 53/19/3
f 101/103/3 96/102/3 11/175/3
f 12/176/5 97/98/5 91/100/5
f 105/88/3 93/87/3 17/149/3
f 107/85/3 94/84/3 23/158/3
f 103/76/3 95/75/3 27/140/3
f 104/64/6 100/63/6 39/136/6
f 108/55/6 99/54/6 38/153/6
f 106/30/6 98/29/6 35/146/6
f 102/27/6 92/26/6 34/177/6
f 34/178/2 92/22/2 96/24/2
f 114/173/3 126/48/3 88/83/3
f 52/11/4 165/11/4 166/179/4
f 117/47/3 124/38/3 77/86/3
f 158/180/4 196/180/4 194/181/4
f 116/37/3 122/72/3 67/74/3
f 7/137/1 164/137/1 183/59/1
f 118/71/3 120/10/3 58/101/3
f 146/3/2 163/3/2 164/182/2
f 3/179/2 115/95/2 109/97/2
f 15/155/1 174/155/1 176/56/1
f 75/56/1 176/56/1 177/1/1
f 123/183/1 188/183/1 180/184/1
f 64/68/4 181/68/4 182/141/4
f 122/72/3 118/71/3 40/135/3
f 126/48/3 117/47/3 37/154/3
f 124/38/3 116/37/3 36/147/3
f 32/185/5 110/13/5 114/15/5
f 120/10/3 109/9/3 31/186/3
f 132/171/3 144/52/3 89/110/3
f 128/161/6 143/115/6 86/53/6
f 135/51/3 142/33/3 80/119/3
f 130/114/6 141/118/6 74/28/6
f 134/32/3 140/67/3 70/107/3
f 129/117/6 139/106/6 66/62/6
f 136/66/3 138/21/3 59/122/3
f 131/105/6 137/132/6 54/25/6
f 137/132/6 133/131/6 10/187/6
f 10/188/2 133/127/2 127/129/2
f 141/118/6 129/117/6 18/150/6
f 143/115/6 130/114/6 24/159/6
f 139/106/6 131/105/6 28/139/6
f 140/67/3 136/66/3 49/134/3
f 144/52/3 135/51/3 48/151/3
f 142/33/3 134/32/3 45/144/3
f 138/21/3 127/20/3 43/189/3
f 44/190/5 128/16/5 132/18/5
f 151/191/6 162/205/6 90/113/6
f 145/163/3 161/112/3 83/192/3
f 153/194/6 160/206/6 79/116/6
f 148/111/3 159/121/3 71/195/3
f 152/197/6 158/204/6 69/104/6
f 147/120/3 157/109/3 63/198/3
f 154/200/6 156/208/6 60/130/6
f 149/108/3 155/124/3 51/201/3
f 5/42/5 151/43/5 145/126/5
f 155/124/3 150/123/3 8/203/3
f 159/121/3 147/120/3 13/199/3
f 161/112/3 148/111/3 21/196/3
f 157/109/3 149/108/3 25/202/3
f 158/204/6 154/200/6 50/133/6
f 162/205/6 153/194/6 47/152/6
f 160/206/6 152/197/6 46/145/6
f 42/207/2 146/3/2 150/5/2
f 156/208/6 146/253/6 42/209/6
f 183/210/6 164/254/6 163/211/6
f 176/213/6 174/223/6 192/214/6
f 167/216/6 177/224/6 193/217/6
f 173/219/6 184/222/6 194/220/6
f 184/222/6 183/210/6 195/212/6
f 174/223/6 173/219/6 196/221/6
f 177/224/6 176/213/6 197/215/6
f 168/225/6 167/216/6 198/218/6
f 169/227/6 189/242/6 178/228/6
f 180/230/6 188/241/6 171/231/6
f 175/233/6 187/243/6 181/234/6
f 185/236/6 186/239/6 165/237/6
f 186/239/6 190/255/6 166/240/6
f 188/241/6 175/233/6 172/235/6
f 189/242/6 180/230/6 179/232/6
f 187/243/6 185/236/6 182/238/6
f 61/39/1 173/39/1 174/155/1
f 160/244/4 197/244/4 192/245/4
f 29/73/1 184/73/1 173/39/1
f 81/2/1 167/2/1 168/42/1
f 153/143/4 193/143/4 197/244/4
f 119/246/1 186/246/1 185/247/1
f 110/13/5 169/13/5 170/172/5
f 156/248/4 195/248/4 163/249/4
f 152/245/4 192/245/4 196/180/4
f 115/250/1 190/250/1 186/246/1
f 1/172/4 170/172/4 178/44/4
f 14/148/4 172/148/4 181/68/4
f 111/157/1 175/157/1 188/183/1
f 154/181/4 194/181/4 195/248/4
f 112/184/1 180/184/1 189/251/1
f 113/247/1 185/247/1 187/156/1
f 22/45/4 179/45/4 171/34/4
f 125/251/1 189/251/1 169/252/1
f 26/141/4 182/141/4 165/11/4
f 3/179/2 166/179/2 190/95/2
