# Blender 4.2.3 LTS
# www.blender.org
mtllib Lamppost.mtl
o Cube
v -1.000000 -1.000000 1.000000
v -0.504977 1.000000 0.504977
v -1.000000 -1.000000 -1.000000
v -0.504977 1.000000 -0.504977
v 1.000000 -1.000000 1.000000
v 0.504977 1.000000 0.504977
v 1.000000 -1.000000 -1.000000
v 0.504977 1.000000 -0.504977
v 0.000000 -1.000000 -1.000000
v 0.000000 1.000000 -0.504977
v 0.000000 -1.000000 1.000000
v 0.000000 1.000000 0.504977
v -1.000000 -1.000000 0.000000
v -0.504977 1.000000 0.000000
v 1.000000 -1.000000 0.000000
v 0.504977 1.000000 0.000000
v 0.000000 14.645498 0.000000
v 0.000000 -1.000000 0.000000
v -0.504977 1.000000 -0.252488
v 1.000000 -1.000000 -0.500000
v -1.000000 -1.000000 -0.500000
v 0.504977 1.000000 -0.252488
v 0.000000 1.000000 -0.500000
v 0.000000 -1.000000 -0.500000
v -1.000000 -1.000000 0.500000
v 0.504977 1.000000 0.252488
v 0.000000 1.000000 0.500000
v 0.000000 -1.000000 0.500000
v -0.504977 1.000000 0.252488
v 1.000000 -1.000000 0.500000
v 0.252488 1.000000 -0.504977
v 0.500000 -1.000000 1.000000
v 0.500000 -1.000000 -1.000000
v 0.252488 1.000000 0.504977
v 0.500000 1.000000 0.000000
v 0.500000 -1.000000 0.000000
v 0.500000 -1.000000 -0.500000
v 0.500000 -1.000000 0.500000
v -0.500000 -1.000000 -1.000000
v -0.252488 1.000000 0.504977
v -0.252488 1.000000 -0.504977
v -0.500000 -1.000000 1.000000
v -0.500000 -1.000000 0.000000
v -0.500000 1.000000 0.000000
v -0.500000 -1.000000 -0.500000
v -0.500000 -1.000000 0.500000
v 0.000000 7.031164 -0.500000
v 0.000000 7.031164 0.500000
v 0.500000 7.031164 0.000000
v 0.500000 7.031164 -0.500000
v 0.500000 7.031164 0.500000
v -0.500000 7.031164 0.000000
v -0.500000 7.031164 -0.500000
v -0.500000 7.031164 0.500000
v 0.000000 10.767750 -0.500000
v 0.000000 10.767750 0.500000
v 0.500000 10.767750 0.000000
v 0.500000 10.767750 -0.500000
v 0.500000 10.767750 0.500000
v -0.500000 10.767750 0.000000
v -0.500000 10.767750 -0.500000
v -0.500000 10.767750 0.500000
v 0.000000 13.326546 -1.339509
v 0.000000 13.326546 1.339509
v 1.339509 13.326546 0.000000
v 1.339509 13.326546 -1.339509
v 1.339509 13.326546 1.339509
v -1.339509 13.326546 0.000000
v -1.339509 13.326546 -1.339509
v -1.339509 13.326546 1.339509
v 0.000000 14.645498 -0.500000
v 0.000000 14.645498 0.500000
v 0.500000 14.645498 0.000000
v 0.500000 14.645498 -0.500000
v 0.500000 14.645498 0.500000
v -0.500000 14.645498 0.000000
v -0.500000 14.645498 -0.500000
v -0.500000 14.645498 0.500000
vn -0.9707 0.2403 -0.0000
vn -0.0000 0.2403 -0.9707
vn 0.9707 0.2403 -0.0000
vn -0.0000 0.2403 0.9707
vn -0.0000 -1.0000 -0.0000
vn -1.0000 0.0008 -0.0000
vn -0.0000 0.0008 1.0000
vn 1.0000 0.0008 -0.0000
vn -1.0000 -0.0000 -0.0000
vn -0.0000 -0.0000 1.0000
vn 1.0000 -0.0000 -0.0000
vn -0.0000 -0.3117 -0.9502
vn -0.0000 -0.3117 0.9502
vn -0.0000 -0.0000 -1.0000
vn -0.0000 0.5370 0.8436
vn -0.8436 0.5370 -0.0000
vn 0.8436 0.5370 -0.0000
vn 0.9502 -0.3117 -0.0000
vn -0.0000 1.0000 -0.0000
vn -0.0000 0.5370 -0.8436
vn -0.9502 -0.3117 -0.0000
vn -0.0000 0.0008 -1.0000
vt 0.168415 0.594866
vt 0.292522 0.625893
vt 0.168415 0.625893
vt 0.168415 0.718973
vt 0.292522 0.750000
vt 0.168415 0.750000
vt 0.168415 0.843080
vt 0.292522 0.874107
vt 0.168415 0.874107
vt 0.168415 0.967188
vt 0.292522 0.998214
vt 0.168415 0.998214
vt 0.375000 0.687500
vt 0.312500 0.750000
vt 0.312500 0.687500
vt 0.497600 0.628069
vt 0.002490 0.583984
vt 0.497600 0.659096
vt 0.250000 0.687500
vt 0.187500 0.750000
vt 0.187500 0.687500
vt 0.292522 0.905134
vt 0.168415 0.936161
vt 0.168415 0.905134
vt 0.292522 0.656920
vt 0.168415 0.687946
vt 0.168415 0.656920
vt 0.250000 0.562500
vt 0.187500 0.625000
vt 0.187500 0.562500
vt 0.375000 0.562500
vt 0.312500 0.625000
vt 0.312500 0.562500
vt 0.292522 0.781027
vt 0.168415 0.812054
vt 0.168415 0.781027
vt 0.292522 0.532812
vt 0.168415 0.563839
vt 0.168415 0.532812
vt 0.375000 0.500000
vt 0.312500 0.500000
vt 0.501507 0.819196
vt -0.001225 0.770756
vt 0.501507 0.850223
vt 0.250000 0.500000
vt 0.187500 0.500000
vt 0.292522 0.594866
vt 0.292522 0.501786
vt 0.168415 0.501786
vt 0.250000 0.625000
vt 0.375000 0.625000
vt 0.292522 0.843080
vt 0.497600 0.795313
vt 0.011719 0.859912
vt 0.501507 0.714676
vt 0.493694 0.669252
vt 0.018994 0.625000
vt 0.022212 0.692631
vt 0.497600 0.687277
vt 0.013135 0.622510
vt 0.013135 0.705078
vt 0.002490 0.707031
vt 0.501507 0.684933
vt 0.497600 0.610937
vt 0.250000 0.750000
vt 0.292522 0.718973
vt 0.125000 0.687500
vt 0.125000 0.625000
vt 0.125000 0.562500
vt 0.125000 0.500000
vt 0.125000 0.750000
vt 0.292522 0.967188
vt 0.448491 0.919194
vt 0.450444 0.736328
vt 0.498355 0.697364
vt 0.000000 0.850147
vt -0.007084 0.694584
vt 0.011182 0.757812
vt 0.477291 0.672603
vt 0.475337 0.728516
vt 0.000537 0.587353
vt 0.501225 0.789062
vt 0.489927 0.599511
vt 0.991880 0.628808
vt 0.500000 0.627052
vt 0.748047 0.628808
vt 0.997319 0.999272
vt 0.494141 0.994720
vt 0.747948 0.999901
vt 0.504634 0.815181
vt 0.849609 0.683692
vt 0.504005 0.679786
vt 0.459292 0.939551
vt 0.022900 0.761719
vt 0.465151 0.757812
vt 0.022900 0.558056
vt 0.232422 0.919824
vt 0.020259 0.916744
vt 0.457031 0.859473
vt 0.010991 0.706303
vt 0.430225 0.558056
vt 0.210938 0.968652
vt 0.226562 0.558056
vt 0.304688 0.845703
vt 0.246094 0.986908
vt 0.242188 0.845703
vt 0.494042 0.771484
vt 0.499901 0.992089
vt 0.179688 0.845703
vt 0.011139 0.769531
vt 0.179688 0.783203
vt 0.304688 0.720703
vt 0.304688 0.783203
vt 0.998775 0.690181
vt 0.509186 0.744141
vt 0.996822 0.746094
vt 0.742188 0.910736
vt 1.000308 0.795020
vt 0.502052 0.921776
vt 0.998355 0.877051
vt 0.505280 0.775391
vt 0.500099 1.003808
vt 0.242188 0.720703
vt 0.179688 0.720703
vt 0.242188 0.783203
vt 0.242188 0.504005
vt 0.304688 0.728516
vt 0.242188 0.728516
vt 0.179688 0.728516
vt -0.001855 0.505958
vt 0.009864 0.771484
vt 0.005958 0.997948
vt 0.513573 0.771484
vt 0.993833 0.751855
vt 0.751225 0.761719
vt 0.511620 0.779297
vt 0.997319 0.995366
vt 0.517480 0.999901
vt 0.495647 0.713114
vt 0.000000 0.667431
vt -0.000537 0.745556
vt 0.497600 0.680357
vt -0.001416 0.622510
vt 0.000000 0.694775
vt 0.375000 0.750000
vt 0.497600 0.597042
vt 0.002490 0.659619
vt 0.292522 0.936161
vt 0.292522 0.687946
vt 0.292522 0.812054
vt 0.292522 0.563839
vt 0.501507 0.788170
vt 0.495647 0.854130
vt 0.493694 0.700279
vt 0.493694 0.638225
vt 0.497600 0.718304
vt 0.497600 0.656250
vt 0.497600 0.579911
vt 0.010991 0.596928
vt 0.236328 0.693359
vt 0.012944 0.915288
vt 0.498047 0.854741
vt 0.011182 0.554150
vt 0.000537 0.791016
vt 0.499901 0.496192
vt 0.996094 0.879004
vt 0.998047 0.820215
vt 0.028072 0.969975
vt 0.462163 0.714116
vt 0.454770 0.968652
vt 0.498145 0.578224
vt 1.000000 0.909428
vt 0.998355 0.755859
vt 0.499901 0.504005
vt -0.001855 0.498145
vt 0.513573 0.572364
vt 0.999272 0.863281
vt 0.495647 0.744141
vt 0.495647 0.682087
vt 0.497600 0.711384
vt 0.497600 0.649330
s 0
usemtl Material.001
f 21/1/1 4/2/1 3/3/1
f 33/4/2 8/5/2 7/6/2
f 30/7/3 6/8/3 5/9/3
f 42/10/4 2/11/4 1/12/4
f 30/13/5 32/14/5 38/15/5
f 19/16/6 52/17/6 4/18/6
f 28/19/5 42/20/5 46/21/5
f 34/22/4 11/23/4 32/24/4
f 41/25/2 9/26/2 39/27/2
f 24/28/5 43/29/5 45/30/5
f 20/31/5 36/32/5 37/33/5
f 22/34/3 15/35/3 20/36/3
f 29/37/1 13/38/1 25/39/1
f 8/5/3 20/36/3 7/6/3
f 7/40/5 37/33/5 33/41/5
f 34/42/7 51/43/7 12/44/7
f 9/45/5 45/30/5 39/46/5
f 13/38/1 19/47/1 21/1/1
f 2/48/1 25/39/1 1/49/1
f 18/50/5 46/21/5 43/29/5
f 15/51/5 38/15/5 36/32/5
f 15/35/3 26/52/3 30/7/3
f 36/32/5 28/19/5 18/50/5
f 40/53/7 48/54/7 2/55/7
f 26/56/8 49/57/8 51/58/8
f 33/41/5 24/28/5 9/45/5
f 37/33/5 18/50/5 24/28/5
f 22/59/8 50/60/8 49/61/8
f 6/8/4 32/24/4 5/9/4
f 52/62/6 14/63/6 29/64/6
f 38/15/5 11/65/5 28/19/5
f 9/26/2 31/66/2 33/4/2
f 43/29/5 25/67/5 13/68/5
f 39/46/5 21/69/5 3/70/5
f 45/30/5 13/68/5 21/69/5
f 4/2/2 39/27/2 3/3/2
f 46/21/5 1/71/5 25/67/5
f 11/23/4 40/72/4 42/10/4
f 52/62/9 62/73/9 60/74/9
f 59/75/10 48/76/10 51/77/10
f 49/78/11 58/79/11 57/80/11
f 53/81/9 60/82/9 61/83/9
f 61/84/12 63/85/12 55/86/12
f 62/87/13 64/88/13 70/89/13
f 58/90/12 63/91/12 66/92/12
f 59/93/11 49/94/11 57/95/11
f 50/96/14 55/97/14 58/98/14
f 56/99/10 54/100/10 48/54/10
f 53/101/14 55/102/14 47/103/14
f 78/104/15 64/105/15 72/106/15
f 78/104/16 68/107/16 70/108/16
f 75/109/17 65/110/17 73/111/17
f 77/112/16 68/107/16 76/113/16
f 58/114/18 65/115/18 57/116/18
f 64/117/13 59/118/13 67/119/13
f 59/120/18 65/121/18 67/122/18
f 71/123/19 73/111/19 74/124/19
f 17/125/19 75/109/19 73/111/19
f 76/113/19 72/106/19 17/125/19
f 77/112/19 17/125/19 71/123/19
f 63/126/20 77/127/20 71/128/20
f 63/126/20 74/129/20 66/130/20
f 65/131/17 74/124/17 73/111/17
f 75/109/15 64/105/15 67/132/15
f 68/133/21 61/134/21 60/135/21
f 68/136/21 62/137/21 70/138/21
f 31/139/22 47/140/22 50/141/22
f 41/142/22 53/143/22 47/144/22
f 21/1/1 19/47/1 4/2/1
f 33/4/2 31/66/2 8/5/2
f 30/7/3 26/52/3 6/8/3
f 42/10/4 40/72/4 2/11/4
f 30/13/5 5/145/5 32/14/5
f 19/16/6 14/146/6 52/17/6
f 52/17/6 53/147/6 4/18/6
f 28/19/5 11/65/5 42/20/5
f 34/22/4 12/148/4 11/23/4
f 41/25/2 10/149/2 9/26/2
f 24/28/5 18/50/5 43/29/5
f 20/31/5 15/51/5 36/32/5
f 22/34/3 16/150/3 15/35/3
f 29/37/1 14/151/1 13/38/1
f 8/5/3 22/34/3 20/36/3
f 7/40/5 20/31/5 37/33/5
f 34/42/7 6/152/7 51/43/7
f 51/43/7 48/76/7 12/44/7
f 9/45/5 24/28/5 45/30/5
f 13/38/1 14/151/1 19/47/1
f 2/48/1 29/37/1 25/39/1
f 18/50/5 28/19/5 46/21/5
f 15/51/5 30/13/5 38/15/5
f 15/35/3 16/150/3 26/52/3
f 36/32/5 38/15/5 28/19/5
f 40/53/7 12/153/7 48/54/7
f 48/54/7 54/100/7 2/55/7
f 51/58/8 6/154/8 26/56/8
f 26/56/8 16/155/8 49/57/8
f 33/41/5 37/33/5 24/28/5
f 37/33/5 36/32/5 18/50/5
f 49/61/8 16/156/8 22/59/8
f 22/59/8 8/157/8 50/60/8
f 6/8/4 34/22/4 32/24/4
f 2/158/6 54/159/6 52/62/6
f 52/62/14 44/160/14 14/63/14
f 29/64/6 2/158/6 52/62/6
f 38/15/5 32/14/5 11/65/5
f 9/26/2 10/149/2 31/66/2
f 43/29/5 46/21/5 25/67/5
f 39/46/5 45/30/5 21/69/5
f 45/30/5 43/29/5 13/68/5
f 4/2/2 41/25/2 39/27/2
f 46/21/5 42/20/5 1/71/5
f 11/23/4 12/148/4 40/72/4
f 52/62/9 54/161/9 62/73/9
f 59/75/10 56/162/10 48/76/10
f 49/78/11 50/163/11 58/79/11
f 53/81/9 52/164/9 60/82/9
f 61/84/12 69/165/12 63/85/12
f 62/87/13 56/166/13 64/88/13
f 58/90/12 55/167/12 63/91/12
f 59/93/11 51/168/11 49/94/11
f 50/96/14 47/103/14 55/97/14
f 56/99/10 62/169/10 54/100/10
f 53/101/14 61/170/14 55/102/14
f 78/104/15 70/108/15 64/105/15
f 78/104/16 76/113/16 68/107/16
f 75/109/17 67/132/17 65/110/17
f 77/112/16 69/165/16 68/107/16
f 58/114/18 66/171/18 65/115/18
f 64/117/13 56/172/13 59/118/13
f 59/120/18 57/173/18 65/121/18
f 71/123/19 17/125/19 73/111/19
f 17/125/19 72/106/19 75/109/19
f 76/113/19 78/104/19 72/106/19
f 77/112/19 76/113/19 17/125/19
f 63/126/20 69/174/20 77/127/20
f 63/126/20 71/128/20 74/129/20
f 65/131/17 66/175/17 74/124/17
f 75/109/15 72/106/15 64/105/15
f 68/133/21 69/176/21 61/134/21
f 68/136/21 60/177/21 62/137/21
f 50/141/22 8/178/22 31/139/22
f 31/139/22 10/179/22 47/140/22
f 47/144/22 10/180/22 41/142/22
f 41/142/22 4/181/22 53/143/22
l 27 12
l 35 16
l 10 23
